<?xml version="1.0" encoding="UTF-8"?>
<!DOCTYPE svg PUBLIC "-//W3C//DTD SVG 1.1//EN" "http://www.w3.org/Graphics/SVG/1.1/DTD/svg11.dtd">
<svg xmlns="http://www.w3.org/2000/svg" version="1.1" width="444px" height="791px" style="shape-rendering:geometricPrecision; text-rendering:geometricPrecision; image-rendering:optimizeQuality; fill-rule:evenodd; clip-rule:evenodd" xmlns:xlink="http://www.w3.org/1999/xlink">
<g><path style="opacity:0.989" fill="#000000" d="M 212.5,518.5 C 212.5,515.833 212.5,513.167 212.5,510.5C 212.5,448.833 212.5,387.167 212.5,325.5C 212.5,323.167 212.5,320.833 212.5,318.5C 212.5,297.5 212.5,276.5 212.5,255.5C 260.834,255.333 309.168,255.5 357.5,256C 377.831,256.776 396.164,263.109 412.5,275C 435.62,297.328 441.12,323.495 429,353.5C 422.446,365.721 412.946,374.887 400.5,381C 427.555,391.563 441.555,411.397 442.5,440.5C 439.509,482.665 417.176,507.832 375.5,516C 371.205,516.912 366.872,517.579 362.5,518C 312.501,518.5 262.501,518.667 212.5,518.5 Z M 287.5,308.5 C 305.889,308.053 324.222,308.553 342.5,310C 353.834,313.151 359.501,320.651 359.5,332.5C 358.612,345.766 351.612,353.599 338.5,356C 321.503,356.5 304.503,356.667 287.5,356.5C 287.5,340.5 287.5,324.5 287.5,308.5 Z M 287.5,409.5 C 303.837,409.333 320.17,409.5 336.5,410C 357.254,413.666 365.42,425.833 361,446.5C 356.171,459.519 346.671,466.019 332.5,466C 317.504,466.5 302.504,466.667 287.5,466.5C 287.5,447.5 287.5,428.5 287.5,409.5 Z"/></g>
<g><path style="opacity:0.983" fill="#fe0003" d="M 212.5,318.5 C 212.5,320.833 212.5,323.167 212.5,325.5C 193.524,354.768 174.524,384.102 155.5,413.5C 174.164,446.133 193.164,478.466 212.5,510.5C 212.5,513.167 212.5,515.833 212.5,518.5C 185.825,518.833 159.158,518.5 132.5,517.5C 123.649,497.781 115.483,477.781 108,457.5C 99.6291,477.739 91.1291,497.906 82.5,518C 55.8271,518.833 29.1604,518.667 2.5,517.5C 21.7074,484.917 41.0408,452.417 60.5,420C 40.7877,386.745 21.4544,353.245 2.5,319.5C 30.1667,318.167 57.8333,318.167 85.5,319.5C 94.2989,338.409 102.799,357.409 111,376.5C 118.15,357.217 125.983,338.217 134.5,319.5C 160.491,318.5 186.491,318.167 212.5,318.5 Z"/></g>
</svg>
