<?xml version="1.0" encoding="UTF-8"?>
<!DOCTYPE svg PUBLIC "-//W3C//DTD SVG 1.1//EN" "http://www.w3.org/Graphics/SVG/1.1/DTD/svg11.dtd">
<svg xmlns="http://www.w3.org/2000/svg" version="1.1" width="989px" height="430px" style="shape-rendering:geometricPrecision; text-rendering:geometricPrecision; image-rendering:optimizeQuality; fill-rule:evenodd; clip-rule:evenodd" xmlns:xlink="http://www.w3.org/1999/xlink">
<g><path style="opacity:0.949" fill="#fefffe" d="M 238.5,126.5 C 251.833,126.5 265.167,126.5 278.5,126.5C 278.5,135.833 278.5,145.167 278.5,154.5C 265.167,154.5 251.833,154.5 238.5,154.5C 238.5,145.167 238.5,135.833 238.5,126.5 Z"/></g>
<g><path style="opacity:0.975" fill="#fefffe" d="M 281.5,126.5 C 294.833,126.5 308.167,126.5 321.5,126.5C 321.5,174.833 321.5,223.167 321.5,271.5C 308.167,271.5 294.833,271.5 281.5,271.5C 281.5,223.167 281.5,174.833 281.5,126.5 Z"/></g>
<g><path style="opacity:0.975" fill="#fefffe" d="M 324.5,126.5 C 337.833,126.5 351.167,126.5 364.5,126.5C 364.5,174.833 364.5,223.167 364.5,271.5C 351.167,271.5 337.833,271.5 324.5,271.5C 324.5,223.167 324.5,174.833 324.5,126.5 Z"/></g>
<g><path style="opacity:0.949" fill="#fefffe" d="M 367.5,126.5 C 380.833,126.5 394.167,126.5 407.5,126.5C 407.5,135.833 407.5,145.167 407.5,154.5C 394.167,154.5 380.833,154.5 367.5,154.5C 367.5,145.167 367.5,135.833 367.5,126.5 Z"/></g>
<g><path style="opacity:0.977" fill="#fffefe" d="M 118.5,271.5 C 118.5,269.5 118.5,267.5 118.5,265.5C 118.5,234.5 118.5,203.5 118.5,172.5C 118.5,170.5 118.5,168.5 118.5,166.5C 118.5,155.5 118.5,144.5 118.5,133.5C 145.502,133.333 172.502,133.5 199.5,134C 232.061,140.294 242.228,158.794 230,189.5C 226.749,193.422 222.916,196.588 218.5,199C 223.1,201.215 227.266,204.048 231,207.5C 233.838,211.172 236.171,215.172 238,219.5C 238.5,201.836 238.667,184.17 238.5,166.5C 251.833,166.5 265.167,166.5 278.5,166.5C 278.5,201.5 278.5,236.5 278.5,271.5C 265.167,271.5 251.833,271.5 238.5,271.5C 238.666,261.494 238.5,251.494 238,241.5C 232.929,256.901 222.429,266.401 206.5,270C 177.209,271.459 147.875,271.959 118.5,271.5 Z M 158.5,161.5 C 168.58,161.077 178.58,161.577 188.5,163C 195.792,167.676 197.292,173.842 193,181.5C 191.786,183.049 190.286,184.215 188.5,185C 178.566,186.395 168.566,186.895 158.5,186.5C 158.5,178.167 158.5,169.833 158.5,161.5 Z M 158.5,214.5 C 168.566,214.105 178.566,214.605 188.5,216C 194.051,218.553 196.718,222.886 196.5,229C 196.871,235.267 194.204,239.601 188.5,242C 178.58,243.423 168.58,243.923 158.5,243.5C 158.5,233.833 158.5,224.167 158.5,214.5 Z"/></g>
<g><path style="opacity:0.969" fill="#fefffe" d="M 675.5,133.5 C 691.837,133.333 708.17,133.5 724.5,134C 738.342,161.85 751.508,190.017 764,218.5C 763.719,190.175 763.552,161.842 763.5,133.5C 776.167,133.5 788.833,133.5 801.5,133.5C 801.333,156.836 801.5,180.169 802,203.5C 809.614,176.342 827.614,163.009 856,163.5C 872.675,162.846 886.675,168.513 898,180.5C 898.499,175.845 898.666,171.179 898.5,166.5C 903.5,166.5 908.5,166.5 913.5,166.5C 913.5,157.167 913.5,147.833 913.5,138.5C 926.833,138.5 940.167,138.5 953.5,138.5C 953.5,147.833 953.5,157.167 953.5,166.5C 959.5,166.5 965.5,166.5 971.5,166.5C 971.5,175.5 971.5,184.5 971.5,193.5C 965.5,193.5 959.5,193.5 953.5,193.5C 953.333,209.837 953.5,226.17 954,242.5C 955.236,244.538 957.069,245.705 959.5,246C 962.482,246.498 965.482,246.665 968.5,246.5C 969.118,255.27 968.452,263.77 966.5,272C 953.735,274.3 941.069,273.966 928.5,271C 919.836,266.985 915.003,260.151 914,250.5C 913.5,231.503 913.333,212.503 913.5,193.5C 910.753,193.187 908.086,193.52 905.5,194.5C 909.057,205.285 910.057,216.285 908.5,227.5C 885.833,227.5 863.167,227.5 840.5,227.5C 840.679,232.897 842.179,237.897 845,242.5C 850.047,247.46 855.88,248.627 862.5,246C 865.363,244.636 867.363,242.47 868.5,239.5C 881.821,238.334 895.154,238.167 908.5,239C 899.749,263.734 882.082,275.568 855.5,274.5C 827.273,275.406 809.44,262.406 802,235.5C 801.5,247.829 801.333,260.162 801.5,272.5C 785.589,272.825 769.756,272.491 754,271.5C 739.785,241.738 726.119,211.738 713,181.5C 713.199,211.494 713.365,241.494 713.5,271.5C 700.833,271.5 688.167,271.5 675.5,271.5C 675.5,225.5 675.5,179.5 675.5,133.5 Z M 853.5,188.5 C 864.032,188.866 869.365,194.366 869.5,205C 860.173,205.5 850.839,205.666 841.5,205.5C 841.387,196.668 845.387,191.001 853.5,188.5 Z"/></g>
<g><path style="opacity:0.97" fill="#fefffe" d="M 473.5,163.5 C 498.947,161.623 513.114,173.29 516,198.5C 526.802,167.849 547.635,157.683 578.5,168C 580.333,169.833 582.167,171.667 584,173.5C 584.311,171.444 584.811,169.444 585.5,167.5C 598.149,166.501 610.816,166.168 623.5,166.5C 623.667,200.835 623.5,235.168 623,269.5C 621.356,290.989 610.19,304.489 589.5,310C 572.316,313.757 555.316,313.091 538.5,308C 524.915,302.254 517.248,292.087 515.5,277.5C 528.85,277.167 542.183,277.501 555.5,278.5C 559.232,285.141 564.898,287.641 572.5,286C 576.066,285.3 578.9,283.467 581,280.5C 583.475,273.371 584.475,266.037 584,258.5C 573.94,268.729 561.774,272.229 547.5,269C 530.805,265.306 520.305,255.139 516,238.5C 515.5,249.828 515.333,261.162 515.5,272.5C 502.167,272.5 488.833,272.5 475.5,272.5C 475.667,249.498 475.5,226.498 475,203.5C 474.164,196.995 470.497,193.662 464,193.5C 457.059,193.304 453.059,196.637 452,203.5C 451.5,226.498 451.333,249.498 451.5,272.5C 438.167,272.5 424.833,272.5 411.5,272.5C 411.8,237.146 411.467,201.813 410.5,166.5C 423.833,166.5 437.167,166.5 450.5,166.5C 450.183,169.572 450.516,172.572 451.5,175.5C 457.481,168.846 464.814,164.846 473.5,163.5 Z M 566.5,191.5 C 578.403,190.238 584.57,195.571 585,207.5C 586.221,217.107 585.221,226.44 582,235.5C 575.562,242.401 568.395,243.234 560.5,238C 554.977,229.301 553.143,219.801 555,209.5C 555.599,201.274 559.432,195.274 566.5,191.5 Z"/></g>
<g><path style="opacity:0.969" fill="#fe0003" d="M 118.5,166.5 C 118.5,168.5 118.5,170.5 118.5,172.5C 108.857,187.101 99.1903,201.768 89.5,216.5C 98.941,233.061 108.608,249.395 118.5,265.5C 118.5,267.5 118.5,269.5 118.5,271.5C 104.484,271.833 90.4841,271.499 76.5,270.5C 72.0573,260.615 67.8906,250.615 64,240.5C 60.1094,250.615 55.9427,260.615 51.5,270.5C 37.1667,271.833 22.8333,271.833 8.5,270.5C 18.6326,253.733 28.6326,236.9 38.5,220C 28.6334,202.435 18.6334,184.935 8.5,167.5C 23.1553,166.334 37.822,166.167 52.5,167C 57.1223,176.366 61.4556,185.866 65.5,195.5C 69.495,186.175 73.495,176.842 77.5,167.5C 91.1504,166.501 104.817,166.167 118.5,166.5 Z"/></g>
<g><path style="opacity:0.965" fill="#fefffe" d="M 367.5,166.5 C 380.833,166.5 394.167,166.5 407.5,166.5C 407.5,201.833 407.5,237.167 407.5,272.5C 394.167,272.5 380.833,272.5 367.5,272.5C 367.5,237.167 367.5,201.833 367.5,166.5 Z"/></g>
<g><path style="opacity:0.968" fill="#fe0003" d="M 627.5,229.5 C 640.833,229.5 654.167,229.5 667.5,229.5C 667.5,243.5 667.5,257.5 667.5,271.5C 654.167,271.5 640.833,271.5 627.5,271.5C 627.5,257.5 627.5,243.5 627.5,229.5 Z"/></g>
</svg>
