<?xml version="1.0" encoding="UTF-8"?>
<!DOCTYPE svg PUBLIC "-//W3C//DTD SVG 1.1//EN" "http://www.w3.org/Graphics/SVG/1.1/DTD/svg11.dtd">
<svg xmlns="http://www.w3.org/2000/svg" version="1.1" width="1850px" height="1576px" style="shape-rendering:geometricPrecision; text-rendering:geometricPrecision; image-rendering:optimizeQuality; fill-rule:evenodd; clip-rule:evenodd" xmlns:xlink="http://www.w3.org/1999/xlink">
<g><path style="opacity:0.986" fill="#000000" d="M 885.5,1296.5 C 885.773,1284.13 885.44,1271.8 884.5,1259.5C 884.5,1004.5 884.5,749.5 884.5,494.5C 885.797,483.705 885.797,473.039 884.5,462.5C 884.5,374.833 884.5,287.167 884.5,199.5C 1013.17,199.333 1141.83,199.5 1270.5,200C 1350.52,200.119 1430.52,201.119 1510.5,203C 1586.24,209.795 1654.9,235.128 1716.5,279C 1813.76,371.226 1837.92,480.059 1789,605.5C 1762.39,658.11 1722.56,697.277 1669.5,723C 1780.65,766.541 1838.65,848.207 1843.5,968C 1834.01,1139.13 1746.01,1244.13 1579.5,1283C 1558.05,1287.96 1536.38,1291.62 1514.5,1294C 1304.84,1296.19 1095.17,1297.02 885.5,1296.5 Z M 1223.5,420.5 C 1291.61,420.107 1359.61,422.607 1427.5,428C 1477.54,443.208 1500.38,477.041 1496,529.5C 1489.03,579.141 1460.86,608.641 1411.5,618C 1340.18,620.169 1268.85,621.002 1197.5,620.5C 1197.5,554.167 1197.5,487.833 1197.5,421.5C 1206.35,421.826 1215.02,421.493 1223.5,420.5 Z M 1197.5,842.5 C 1260.51,842.191 1323.51,842.691 1386.5,844C 1416.3,845.046 1443.64,853.713 1468.5,870C 1495.5,891.33 1508.83,919.33 1508.5,954C 1508.93,997.801 1491.6,1032.47 1456.5,1058C 1439.57,1068.2 1421.24,1074.2 1401.5,1076C 1333.52,1078.65 1265.52,1079.48 1197.5,1078.5C 1197.5,999.833 1197.5,921.167 1197.5,842.5 Z"/></g>
<g><path style="opacity:0.98" fill="#fd0003" d="M 884.5,462.5 C 885.797,473.039 885.797,483.705 884.5,494.5C 805.499,615.524 726.833,736.857 648.5,858.5C 725.428,993.382 804.095,1127.05 884.5,1259.5C 885.44,1271.8 885.773,1284.13 885.5,1296.5C 773.806,1297.66 662.139,1296.33 550.5,1292.5C 514.733,1210.63 480.9,1127.97 449,1044.5C 414.79,1128.09 379.623,1211.25 343.5,1294C 272.52,1296.37 201.52,1297.04 130.5,1296C 90.1158,1295.58 49.7824,1294.08 9.5,1291.5C 89.3296,1155.84 169.663,1020.5 250.5,885.5C 168.651,747.147 88.3173,607.813 9.5,467.5C 11.7662,466.686 14.0995,466.186 16.5,466C 98.1355,462.707 179.802,461.707 261.5,463C 293.212,463.502 324.879,464.835 356.5,467C 392.633,545.065 427.8,623.565 462,702.5C 491.333,622.67 523.833,544.17 559.5,467C 667.781,462.099 776.114,460.599 884.5,462.5 Z"/></g>
</svg>
