<?xml version="1.0" encoding="UTF-8"?>
<!DOCTYPE svg PUBLIC "-//W3C//DTD SVG 1.1//EN" "http://www.w3.org/Graphics/SVG/1.1/DTD/svg11.dtd">
<svg xmlns="http://www.w3.org/2000/svg" version="1.1" width="263px" height="102px" style="shape-rendering:geometricPrecision; text-rendering:geometricPrecision; image-rendering:optimizeQuality; fill-rule:evenodd; clip-rule:evenodd" xmlns:xlink="http://www.w3.org/1999/xlink">
<g><path style="opacity:0.913" fill="#000000" d="M 31.5,65.5 C 31.3713,63.7839 31.038,62.1172 30.5,60.5C 30.5,54.5 30.5,48.5 30.5,42.5C 31.494,40.6656 31.494,38.9989 30.5,37.5C 30.5,34.5 30.5,31.5 30.5,28.5C 39.5679,28.1187 48.5679,28.6187 57.5,30C 63.676,35.0309 64.0093,40.3643 58.5,46C 60.3783,47.5429 61.8783,49.3762 63,51.5C 63.4992,46.8452 63.6658,42.1785 63.5,37.5C 67.1667,37.5 70.8333,37.5 74.5,37.5C 74.5,36.5 74.5,35.5 74.5,34.5C 70.8333,34.5 67.1667,34.5 63.5,34.5C 63.5,31.8333 63.5,29.1667 63.5,26.5C 70.8333,26.5 78.1667,26.5 85.5,26.5C 85.5,39.5 85.5,52.5 85.5,65.5C 78.1667,65.5 70.8333,65.5 63.5,65.5C 63.6633,63.1432 63.4966,60.8098 63,58.5C 61.413,61.7559 58.913,63.9226 55.5,65C 47.5069,65.4997 39.5069,65.6664 31.5,65.5 Z M 42.5,36.5 C 44.8568,36.3367 47.1902,36.5034 49.5,37C 51.5254,38.194 51.8587,39.694 50.5,41.5C 47.9135,42.48 45.2469,42.8134 42.5,42.5C 42.5,40.5 42.5,38.5 42.5,36.5 Z M 42.5,50.5 C 44.8568,50.3367 47.1902,50.5034 49.5,51C 51.6015,52.7328 51.9348,54.7328 50.5,57C 47.854,57.4974 45.1873,57.6641 42.5,57.5C 42.5,55.1667 42.5,52.8333 42.5,50.5 Z"/></g>
<g><path style="opacity:0.913" fill="#000000" d="M 86.5,26.5 C 93.8333,26.5 101.167,26.5 108.5,26.5C 108.5,29.1667 108.5,31.8333 108.5,34.5C 104.833,34.5 101.167,34.5 97.5,34.5C 97.5,35.5 97.5,36.5 97.5,37.5C 101.167,37.5 104.833,37.5 108.5,37.5C 108.5,46.8333 108.5,56.1667 108.5,65.5C 101.167,65.5 93.8333,65.5 86.5,65.5C 86.5,52.5 86.5,39.5 86.5,26.5 Z"/></g>
<g><path style="opacity:0.909" fill="#000000" d="M 178.5,28.5 C 183.179,28.3342 187.845,28.5008 192.5,29C 195.523,35.5458 198.689,42.0458 202,48.5C 202.5,41.8417 202.666,35.175 202.5,28.5C 205.833,28.5 209.167,28.5 212.5,28.5C 212.334,33.8437 212.501,39.1771 213,44.5C 219.244,35.9821 227.077,34.3155 236.5,39.5C 237.842,37.9951 239.508,37.3285 241.5,37.5C 241.5,35.1667 241.5,32.8333 241.5,30.5C 245.167,30.5 248.833,30.5 252.5,30.5C 252.5,32.8333 252.5,35.1667 252.5,37.5C 254.167,37.5 255.833,37.5 257.5,37.5C 257.5,40.1667 257.5,42.8333 257.5,45.5C 255.833,45.5 254.167,45.5 252.5,45.5C 252.334,49.5138 252.501,53.5138 253,57.5C 254.011,58.3366 255.178,58.67 256.5,58.5C 256.768,61.1194 256.435,63.6194 255.5,66C 245.517,68.5109 240.85,64.6776 241.5,54.5C 235.5,54.5 229.5,54.5 223.5,54.5C 223.077,57.2431 224.244,58.5765 227,58.5C 231.346,56.8311 235.846,56.1645 240.5,56.5C 238.8,63.7051 234.133,67.0384 226.5,66.5C 220.088,66.898 215.588,64.2313 213,58.5C 212.503,60.8098 212.337,63.1432 212.5,65.5C 208.154,65.6657 203.821,65.499 199.5,65C 196.205,58.242 193.038,51.4087 190,44.5C 189.5,51.4921 189.334,58.4921 189.5,65.5C 185.833,65.5 182.167,65.5 178.5,65.5C 178.5,53.1667 178.5,40.8333 178.5,28.5 Z M 225.5,43.5 C 228.179,43.5246 229.512,44.858 229.5,47.5C 227.396,47.7989 225.396,47.4656 223.5,46.5C 224.193,45.4822 224.859,44.4822 225.5,43.5 Z"/></g>
<g><path style="opacity:0.92" fill="#000000" d="M 124.5,36.5 C 131.198,35.4327 135.364,38.0994 137,44.5C 139.807,38.2229 144.64,35.7229 151.5,37C 152.416,37.3742 153.25,37.8742 154,38.5C 157.73,37.5399 161.563,37.2065 165.5,37.5C 165.666,47.5056 165.5,57.5056 165,67.5C 163.833,72 161,74.8333 156.5,76C 152.5,76.6667 148.5,76.6667 144.5,76C 139.483,74.816 136.816,71.6493 136.5,66.5C 141.564,65.934 146.231,66.934 150.5,69.5C 153.499,68.4963 154.666,66.4963 154,63.5C 147.878,66.7018 142.544,65.7018 138,60.5C 137.506,62.1341 137.34,63.8008 137.5,65.5C 133.833,65.5 130.167,65.5 126.5,65.5C 126.666,59.4908 126.499,53.4908 126,47.5C 124.688,45.3424 123.022,45.0091 121,46.5C 120.5,52.8246 120.334,59.1579 120.5,65.5C 116.833,65.5 113.167,65.5 109.5,65.5C 109.5,56.1667 109.5,46.8333 109.5,37.5C 113.24,37.2408 116.906,37.5741 120.5,38.5C 122.026,38.0057 123.359,37.339 124.5,36.5 Z M 149.5,44.5 C 151.39,44.2965 152.89,44.9632 154,46.5C 154.667,49.5 154.667,52.5 154,55.5C 152,58.1667 150,58.1667 148,55.5C 147.013,51.5252 147.513,47.8585 149.5,44.5 Z"/></g>
<g><path style="opacity:0.908" fill="#fe0003" d="M 30.5,37.5 C 31.494,38.9989 31.494,40.6656 30.5,42.5C 28.3991,45.1789 26.3991,48.0123 24.5,51C 26.3631,54.3402 28.3631,57.5069 30.5,60.5C 31.038,62.1172 31.3713,63.7839 31.5,65.5C 27.8183,65.6653 24.1516,65.4986 20.5,65C 19.4063,63.2197 18.4063,61.3864 17.5,59.5C 16.218,61.1792 15.218,63.0126 14.5,65C 10.5,65.6667 6.5,65.6667 2.5,65C 5.16667,60.6667 7.83333,56.3333 10.5,52C 7.70738,47.5825 5.04071,43.0825 2.5,38.5C 6.45894,37.3401 10.4589,37.1735 14.5,38C 15.7938,40.087 16.9605,42.2537 18,44.5C 18.5573,42.3853 19.3906,40.3853 20.5,38.5C 23.7683,37.513 27.1016,37.1796 30.5,37.5 Z"/></g>
<g><path style="opacity:0.927" fill="#fe0003" d="M 166.5,54.5 C 170.167,54.5 173.833,54.5 177.5,54.5C 177.5,58.1667 177.5,61.8333 177.5,65.5C 173.833,65.5 170.167,65.5 166.5,65.5C 166.5,61.8333 166.5,58.1667 166.5,54.5 Z"/></g>
</svg>
